<?xml version="1.0" encoding="utf-8" standalone="no"?>
<!DOCTYPE svg PUBLIC "-//W3C//DTD SVG 1.1//EN"
  "http://www.w3.org/Graphics/SVG/1.1/DTD/svg11.dtd">
<svg xmlns:xlink="http://www.w3.org/1999/xlink" width="280.795979pt" height="276.007519pt" viewBox="0 0 280.795979 276.007519" xmlns="http://www.w3.org/2000/svg" version="1.1">
 <metadata>
  <rdf:RDF xmlns:dc="http://purl.org/dc/elements/1.1/" xmlns:cc="http://creativecommons.org/ns#" xmlns:rdf="http://www.w3.org/1999/02/22-rdf-syntax-ns#">
   <cc:Work>
    <dc:type rdf:resource="http://purl.org/dc/dcmitype/StillImage"/>
    <dc:date>2026-07-20T12:47:56.309145</dc:date>
    <dc:format>image/svg+xml</dc:format>
    <dc:creator>
     <cc:Agent>
      <dc:title>Matplotlib v3.11.0, https://matplotlib.org/</dc:title>
     </cc:Agent>
    </dc:creator>
   </cc:Work>
  </rdf:RDF>
 </metadata>
 <defs>
  <style type="text/css">*{stroke-linejoin: round; stroke-linecap: butt}</style>
 </defs>
 <g id="figure_1">
  <g id="patch_1">
   <path d="M 0 276.007519 
L 280.795979 276.007519 
L 280.795979 0 
L 0 0 
z
" style="fill: #ffffff"/>
  </g>
  <g id="axes_1">
   <g id="patch_2">
    <path d="M 36.332188 243.807519 
L 268.173144 243.807519 
L 268.173144 18.518359 
L 36.332188 18.518359 
z
" style="fill: #ffffff"/>
   </g>
   <g id="matplotlib.axis_1">
    <g id="xtick_1">
     <g id="line2d_1">
      <path d="M 52.252173 243.807519 
L 52.252173 18.518359 
" clip-path="url(#pbf3ac8069c)" style="fill: none; stroke: #cccccc; stroke-width: 0.8; stroke-linecap: round"/>
     </g>
     <g id="text_1">
      <!-- 5.5 -->
      <g style="fill: #262626" transform="translate(46.686079 256.125878) scale(0.07 -0.07)">
       <defs>
        <path id="DejaVuSans-18" d="M 691 4666 
L 3169 4666 
L 3169 4134 
L 1269 4134 
L 1269 2991 
Q 1406 3038 1543 3061 
Q 1681 3084 1819 3084 
Q 2600 3084 3056 2656 
Q 3513 2228 3513 1497 
Q 3513 744 3044 326 
Q 2575 -91 1722 -91 
Q 1428 -91 1123 -41 
Q 819 9 494 109 
L 494 744 
Q 775 591 1075 516 
Q 1375 441 1709 441 
Q 2250 441 2565 725 
Q 2881 1009 2881 1497 
Q 2881 1984 2565 2268 
Q 2250 2553 1709 2553 
Q 1456 2553 1204 2497 
Q 953 2441 691 2322 
L 691 4666 
z
" transform="scale(0.015625)"/>
        <path id="DejaVuSans-11" d="M 684 794 
L 1344 794 
L 1344 0 
L 684 0 
L 684 794 
z
" transform="scale(0.015625)"/>
       </defs>
       <use xlink:href="#DejaVuSans-18"/>
       <use xlink:href="#DejaVuSans-11" transform="translate(63.625 0)"/>
       <use xlink:href="#DejaVuSans-18" transform="translate(95.40625 0)"/>
      </g>
     </g>
    </g>
    <g id="xtick_2">
     <g id="line2d_2">
      <path d="M 79.224387 243.807519 
L 79.224387 18.518359 
" clip-path="url(#pbf3ac8069c)" style="fill: none; stroke: #cccccc; stroke-width: 0.8; stroke-linecap: round"/>
     </g>
     <g id="text_2">
      <!-- 6.0 -->
      <g style="fill: #262626" transform="translate(73.658293 256.125878) scale(0.07 -0.07)">
       <defs>
        <path id="DejaVuSans-19" d="M 2113 2584 
Q 1688 2584 1439 2293 
Q 1191 2003 1191 1497 
Q 1191 994 1439 701 
Q 1688 409 2113 409 
Q 2538 409 2786 701 
Q 3034 994 3034 1497 
Q 3034 2003 2786 2293 
Q 2538 2584 2113 2584 
z
M 3366 4563 
L 3366 3988 
Q 3128 4100 2886 4159 
Q 2644 4219 2406 4219 
Q 1781 4219 1451 3797 
Q 1122 3375 1075 2522 
Q 1259 2794 1537 2939 
Q 1816 3084 2150 3084 
Q 2853 3084 3261 2657 
Q 3669 2231 3669 1497 
Q 3669 778 3244 343 
Q 2819 -91 2113 -91 
Q 1303 -91 875 529 
Q 447 1150 447 2328 
Q 447 3434 972 4092 
Q 1497 4750 2381 4750 
Q 2619 4750 2861 4703 
Q 3103 4656 3366 4563 
z
" transform="scale(0.015625)"/>
        <path id="DejaVuSans-13" d="M 2034 4250 
Q 1547 4250 1301 3770 
Q 1056 3291 1056 2328 
Q 1056 1369 1301 889 
Q 1547 409 2034 409 
Q 2525 409 2770 889 
Q 3016 1369 3016 2328 
Q 3016 3291 2770 3770 
Q 2525 4250 2034 4250 
z
M 2034 4750 
Q 2819 4750 3233 4129 
Q 3647 3509 3647 2328 
Q 3647 1150 3233 529 
Q 2819 -91 2034 -91 
Q 1250 -91 836 529 
Q 422 1150 422 2328 
Q 422 3509 836 4129 
Q 1250 4750 2034 4750 
z
" transform="scale(0.015625)"/>
       </defs>
       <use xlink:href="#DejaVuSans-19"/>
       <use xlink:href="#DejaVuSans-11" transform="translate(63.625 0)"/>
       <use xlink:href="#DejaVuSans-13" transform="translate(95.40625 0)"/>
      </g>
     </g>
    </g>
    <g id="xtick_3">
     <g id="line2d_3">
      <path d="M 106.196601 243.807519 
L 106.196601 18.518359 
" clip-path="url(#pbf3ac8069c)" style="fill: none; stroke: #cccccc; stroke-width: 0.8; stroke-linecap: round"/>
     </g>
     <g id="text_3">
      <!-- 6.5 -->
      <g style="fill: #262626" transform="translate(100.630507 256.125878) scale(0.07 -0.07)">
       <use xlink:href="#DejaVuSans-19"/>
       <use xlink:href="#DejaVuSans-11" transform="translate(63.625 0)"/>
       <use xlink:href="#DejaVuSans-18" transform="translate(95.40625 0)"/>
      </g>
     </g>
    </g>
    <g id="xtick_4">
     <g id="line2d_4">
      <path d="M 133.168815 243.807519 
L 133.168815 18.518359 
" clip-path="url(#pbf3ac8069c)" style="fill: none; stroke: #cccccc; stroke-width: 0.8; stroke-linecap: round"/>
     </g>
     <g id="text_4">
      <!-- 7.0 -->
      <g style="fill: #262626" transform="translate(127.602721 256.125878) scale(0.07 -0.07)">
       <defs>
        <path id="DejaVuSans-1a" d="M 525 4666 
L 3525 4666 
L 3525 4397 
L 1831 0 
L 1172 0 
L 2766 4134 
L 525 4134 
L 525 4666 
z
" transform="scale(0.015625)"/>
       </defs>
       <use xlink:href="#DejaVuSans-1a"/>
       <use xlink:href="#DejaVuSans-11" transform="translate(63.625 0)"/>
       <use xlink:href="#DejaVuSans-13" transform="translate(95.40625 0)"/>
      </g>
     </g>
    </g>
    <g id="xtick_5">
     <g id="line2d_5">
      <path d="M 160.141029 243.807519 
L 160.141029 18.518359 
" clip-path="url(#pbf3ac8069c)" style="fill: none; stroke: #cccccc; stroke-width: 0.8; stroke-linecap: round"/>
     </g>
     <g id="text_5">
      <!-- 7.5 -->
      <g style="fill: #262626" transform="translate(154.574935 256.125878) scale(0.07 -0.07)">
       <use xlink:href="#DejaVuSans-1a"/>
       <use xlink:href="#DejaVuSans-11" transform="translate(63.625 0)"/>
       <use xlink:href="#DejaVuSans-18" transform="translate(95.40625 0)"/>
      </g>
     </g>
    </g>
    <g id="xtick_6">
     <g id="line2d_6">
      <path d="M 187.113243 243.807519 
L 187.113243 18.518359 
" clip-path="url(#pbf3ac8069c)" style="fill: none; stroke: #cccccc; stroke-width: 0.8; stroke-linecap: round"/>
     </g>
     <g id="text_6">
      <!-- 8.0 -->
      <g style="fill: #262626" transform="translate(181.547149 256.125878) scale(0.07 -0.07)">
       <defs>
        <path id="DejaVuSans-1b" d="M 2034 2216 
Q 1584 2216 1326 1975 
Q 1069 1734 1069 1313 
Q 1069 891 1326 650 
Q 1584 409 2034 409 
Q 2484 409 2743 651 
Q 3003 894 3003 1313 
Q 3003 1734 2745 1975 
Q 2488 2216 2034 2216 
z
M 1403 2484 
Q 997 2584 770 2862 
Q 544 3141 544 3541 
Q 544 4100 942 4425 
Q 1341 4750 2034 4750 
Q 2731 4750 3128 4425 
Q 3525 4100 3525 3541 
Q 3525 3141 3298 2862 
Q 3072 2584 2669 2484 
Q 3125 2378 3379 2068 
Q 3634 1759 3634 1313 
Q 3634 634 3220 271 
Q 2806 -91 2034 -91 
Q 1263 -91 848 271 
Q 434 634 434 1313 
Q 434 1759 690 2068 
Q 947 2378 1403 2484 
z
M 1172 3481 
Q 1172 3119 1398 2916 
Q 1625 2713 2034 2713 
Q 2441 2713 2670 2916 
Q 2900 3119 2900 3481 
Q 2900 3844 2670 4047 
Q 2441 4250 2034 4250 
Q 1625 4250 1398 4047 
Q 1172 3844 1172 3481 
z
" transform="scale(0.015625)"/>
       </defs>
       <use xlink:href="#DejaVuSans-1b"/>
       <use xlink:href="#DejaVuSans-11" transform="translate(63.625 0)"/>
       <use xlink:href="#DejaVuSans-13" transform="translate(95.40625 0)"/>
      </g>
     </g>
    </g>
    <g id="xtick_7">
     <g id="line2d_7">
      <path d="M 214.085457 243.807519 
L 214.085457 18.518359 
" clip-path="url(#pbf3ac8069c)" style="fill: none; stroke: #cccccc; stroke-width: 0.8; stroke-linecap: round"/>
     </g>
     <g id="text_7">
      <!-- 8.5 -->
      <g style="fill: #262626" transform="translate(208.519363 256.125878) scale(0.07 -0.07)">
       <use xlink:href="#DejaVuSans-1b"/>
       <use xlink:href="#DejaVuSans-11" transform="translate(63.625 0)"/>
       <use xlink:href="#DejaVuSans-18" transform="translate(95.40625 0)"/>
      </g>
     </g>
    </g>
    <g id="xtick_8">
     <g id="line2d_8">
      <path d="M 241.057671 243.807519 
L 241.057671 18.518359 
" clip-path="url(#pbf3ac8069c)" style="fill: none; stroke: #cccccc; stroke-width: 0.8; stroke-linecap: round"/>
     </g>
     <g id="text_8">
      <!-- 9.0 -->
      <g style="fill: #262626" transform="translate(235.491577 256.125878) scale(0.07 -0.07)">
       <defs>
        <path id="DejaVuSans-1c" d="M 703 97 
L 703 672 
Q 941 559 1184 500 
Q 1428 441 1663 441 
Q 2288 441 2617 861 
Q 2947 1281 2994 2138 
Q 2813 1869 2534 1725 
Q 2256 1581 1919 1581 
Q 1219 1581 811 2004 
Q 403 2428 403 3163 
Q 403 3881 828 4315 
Q 1253 4750 1959 4750 
Q 2769 4750 3195 4129 
Q 3622 3509 3622 2328 
Q 3622 1225 3098 567 
Q 2575 -91 1691 -91 
Q 1453 -91 1209 -44 
Q 966 3 703 97 
z
M 1959 2075 
Q 2384 2075 2632 2365 
Q 2881 2656 2881 3163 
Q 2881 3666 2632 3958 
Q 2384 4250 1959 4250 
Q 1534 4250 1286 3958 
Q 1038 3666 1038 3163 
Q 1038 2656 1286 2365 
Q 1534 2075 1959 2075 
z
" transform="scale(0.015625)"/>
       </defs>
       <use xlink:href="#DejaVuSans-1c"/>
       <use xlink:href="#DejaVuSans-11" transform="translate(63.625 0)"/>
       <use xlink:href="#DejaVuSans-13" transform="translate(95.40625 0)"/>
      </g>
     </g>
    </g>
    <g id="xtick_9">
     <g id="line2d_9">
      <path d="M 268.029885 243.807519 
L 268.029885 18.518359 
" clip-path="url(#pbf3ac8069c)" style="fill: none; stroke: #cccccc; stroke-width: 0.8; stroke-linecap: round"/>
     </g>
     <g id="text_9">
      <!-- 9.5 -->
      <g style="fill: #262626" transform="translate(262.463792 256.125878) scale(0.07 -0.07)">
       <use xlink:href="#DejaVuSans-1c"/>
       <use xlink:href="#DejaVuSans-11" transform="translate(63.625 0)"/>
       <use xlink:href="#DejaVuSans-18" transform="translate(95.40625 0)"/>
      </g>
     </g>
    </g>
    <g id="text_10">
     <!-- EVM (%) -->
     <g style="fill: #262626" transform="translate(137.458056 267.125878) scale(0.07 -0.07)">
      <defs>
       <path id="DejaVuSans-28" d="M 628 4666 
L 3578 4666 
L 3578 4134 
L 1259 4134 
L 1259 2753 
L 3481 2753 
L 3481 2222 
L 1259 2222 
L 1259 531 
L 3634 531 
L 3634 0 
L 628 0 
L 628 4666 
z
" transform="scale(0.015625)"/>
       <path id="DejaVuSans-39" d="M 1831 0 
L 50 4666 
L 709 4666 
L 2188 738 
L 3669 4666 
L 4325 4666 
L 2547 0 
L 1831 0 
z
" transform="scale(0.015625)"/>
       <path id="DejaVuSans-30" d="M 628 4666 
L 1569 4666 
L 2759 1491 
L 3956 4666 
L 4897 4666 
L 4897 0 
L 4281 0 
L 4281 4097 
L 3078 897 
L 2444 897 
L 1241 4097 
L 1241 0 
L 628 0 
L 628 4666 
z
" transform="scale(0.015625)"/>
       <path id="DejaVuSans-3" transform="scale(0.015625)"/>
       <path id="DejaVuSans-b" d="M 1984 4856 
Q 1566 4138 1362 3434 
Q 1159 2731 1159 2009 
Q 1159 1288 1364 580 
Q 1569 -128 1984 -844 
L 1484 -844 
Q 1016 -109 783 600 
Q 550 1309 550 2009 
Q 550 2706 781 3412 
Q 1013 4119 1484 4856 
L 1984 4856 
z
" transform="scale(0.015625)"/>
       <path id="DejaVuSans-8" d="M 4653 2053 
Q 4381 2053 4226 1822 
Q 4072 1591 4072 1178 
Q 4072 772 4226 539 
Q 4381 306 4653 306 
Q 4919 306 5073 539 
Q 5228 772 5228 1178 
Q 5228 1588 5073 1820 
Q 4919 2053 4653 2053 
z
M 4653 2450 
Q 5147 2450 5437 2106 
Q 5728 1763 5728 1178 
Q 5728 594 5436 251 
Q 5144 -91 4653 -91 
Q 4153 -91 3862 251 
Q 3572 594 3572 1178 
Q 3572 1766 3864 2108 
Q 4156 2450 4653 2450 
z
M 1428 4353 
Q 1159 4353 1004 4120 
Q 850 3888 850 3481 
Q 850 3069 1003 2837 
Q 1156 2606 1428 2606 
Q 1700 2606 1854 2837 
Q 2009 3069 2009 3481 
Q 2009 3884 1853 4118 
Q 1697 4353 1428 4353 
z
M 4250 4750 
L 4750 4750 
L 1831 -91 
L 1331 -91 
L 4250 4750 
z
M 1428 4750 
Q 1922 4750 2215 4408 
Q 2509 4066 2509 3481 
Q 2509 2891 2217 2550 
Q 1925 2209 1428 2209 
Q 931 2209 642 2551 
Q 353 2894 353 3481 
Q 353 4063 643 4406 
Q 934 4750 1428 4750 
z
" transform="scale(0.015625)"/>
       <path id="DejaVuSans-c" d="M 513 4856 
L 1013 4856 
Q 1481 4119 1714 3412 
Q 1947 2706 1947 2009 
Q 1947 1309 1714 600 
Q 1481 -109 1013 -844 
L 513 -844 
Q 928 -128 1133 580 
Q 1338 1288 1338 2009 
Q 1338 2731 1133 3434 
Q 928 4138 513 4856 
z
" transform="scale(0.015625)"/>
      </defs>
      <use xlink:href="#DejaVuSans-28"/>
      <use xlink:href="#DejaVuSans-39" transform="translate(63.1875 0)"/>
      <use xlink:href="#DejaVuSans-30" transform="translate(131.59375 0)"/>
      <use xlink:href="#DejaVuSans-3" transform="translate(217.875 0)"/>
      <use xlink:href="#DejaVuSans-b" transform="translate(249.65625 0)"/>
      <use xlink:href="#DejaVuSans-8" transform="translate(288.671875 0)"/>
      <use xlink:href="#DejaVuSans-c" transform="translate(383.6875 0)"/>
     </g>
    </g>
   </g>
   <g id="matplotlib.axis_2">
    <g id="ytick_1">
     <g id="line2d_10">
      <path d="M 36.332188 243.807519 
L 268.173144 243.807519 
" clip-path="url(#pbf3ac8069c)" style="fill: none; stroke: #cccccc; stroke-width: 0.8; stroke-linecap: round"/>
     </g>
     <g id="text_11">
      <!-- 0.0 -->
      <g style="fill: #262626" transform="translate(18.2 246.466698) scale(0.07 -0.07)">
       <use xlink:href="#DejaVuSans-13"/>
       <use xlink:href="#DejaVuSans-11" transform="translate(63.625 0)"/>
       <use xlink:href="#DejaVuSans-13" transform="translate(95.40625 0)"/>
      </g>
     </g>
    </g>
    <g id="ytick_2">
     <g id="line2d_11">
      <path d="M 36.332188 199.633174 
L 268.173144 199.633174 
" clip-path="url(#pbf3ac8069c)" style="fill: none; stroke: #cccccc; stroke-width: 0.8; stroke-linecap: round"/>
     </g>
     <g id="text_12">
      <!-- 0.2 -->
      <g style="fill: #262626" transform="translate(18.2 202.292353) scale(0.07 -0.07)">
       <defs>
        <path id="DejaVuSans-15" d="M 1228 531 
L 3431 531 
L 3431 0 
L 469 0 
L 469 531 
Q 828 903 1448 1529 
Q 2069 2156 2228 2338 
Q 2531 2678 2651 2914 
Q 2772 3150 2772 3378 
Q 2772 3750 2511 3984 
Q 2250 4219 1831 4219 
Q 1534 4219 1204 4116 
Q 875 4013 500 3803 
L 500 4441 
Q 881 4594 1212 4672 
Q 1544 4750 1819 4750 
Q 2544 4750 2975 4387 
Q 3406 4025 3406 3419 
Q 3406 3131 3298 2873 
Q 3191 2616 2906 2266 
Q 2828 2175 2409 1742 
Q 1991 1309 1228 531 
z
" transform="scale(0.015625)"/>
       </defs>
       <use xlink:href="#DejaVuSans-13"/>
       <use xlink:href="#DejaVuSans-11" transform="translate(63.625 0)"/>
       <use xlink:href="#DejaVuSans-15" transform="translate(95.40625 0)"/>
      </g>
     </g>
    </g>
    <g id="ytick_3">
     <g id="line2d_12">
      <path d="M 36.332188 155.458829 
L 268.173144 155.458829 
" clip-path="url(#pbf3ac8069c)" style="fill: none; stroke: #cccccc; stroke-width: 0.8; stroke-linecap: round"/>
     </g>
     <g id="text_13">
      <!-- 0.4 -->
      <g style="fill: #262626" transform="translate(18.2 158.118008) scale(0.07 -0.07)">
       <defs>
        <path id="DejaVuSans-17" d="M 2419 4116 
L 825 1625 
L 2419 1625 
L 2419 4116 
z
M 2253 4666 
L 3047 4666 
L 3047 1625 
L 3713 1625 
L 3713 1100 
L 3047 1100 
L 3047 0 
L 2419 0 
L 2419 1100 
L 313 1100 
L 313 1709 
L 2253 4666 
z
" transform="scale(0.015625)"/>
       </defs>
       <use xlink:href="#DejaVuSans-13"/>
       <use xlink:href="#DejaVuSans-11" transform="translate(63.625 0)"/>
       <use xlink:href="#DejaVuSans-17" transform="translate(95.40625 0)"/>
      </g>
     </g>
    </g>
    <g id="ytick_4">
     <g id="line2d_13">
      <path d="M 36.332188 111.284484 
L 268.173144 111.284484 
" clip-path="url(#pbf3ac8069c)" style="fill: none; stroke: #cccccc; stroke-width: 0.8; stroke-linecap: round"/>
     </g>
     <g id="text_14">
      <!-- 0.6 -->
      <g style="fill: #262626" transform="translate(18.2 113.943663) scale(0.07 -0.07)">
       <use xlink:href="#DejaVuSans-13"/>
       <use xlink:href="#DejaVuSans-11" transform="translate(63.625 0)"/>
       <use xlink:href="#DejaVuSans-19" transform="translate(95.40625 0)"/>
      </g>
     </g>
    </g>
    <g id="ytick_5">
     <g id="line2d_14">
      <path d="M 36.332188 67.110139 
L 268.173144 67.110139 
" clip-path="url(#pbf3ac8069c)" style="fill: none; stroke: #cccccc; stroke-width: 0.8; stroke-linecap: round"/>
     </g>
     <g id="text_15">
      <!-- 0.8 -->
      <g style="fill: #262626" transform="translate(18.2 69.769318) scale(0.07 -0.07)">
       <use xlink:href="#DejaVuSans-13"/>
       <use xlink:href="#DejaVuSans-11" transform="translate(63.625 0)"/>
       <use xlink:href="#DejaVuSans-1b" transform="translate(95.40625 0)"/>
      </g>
     </g>
    </g>
    <g id="ytick_6">
     <g id="line2d_15">
      <path d="M 36.332188 22.935794 
L 268.173144 22.935794 
" clip-path="url(#pbf3ac8069c)" style="fill: none; stroke: #cccccc; stroke-width: 0.8; stroke-linecap: round"/>
     </g>
     <g id="text_16">
      <!-- 1.0 -->
      <g style="fill: #262626" transform="translate(18.2 25.594974) scale(0.07 -0.07)">
       <defs>
        <path id="DejaVuSans-14" d="M 794 531 
L 1825 531 
L 1825 4091 
L 703 3866 
L 703 4441 
L 1819 4666 
L 2450 4666 
L 2450 531 
L 3481 531 
L 3481 0 
L 794 0 
L 794 531 
z
" transform="scale(0.015625)"/>
       </defs>
       <use xlink:href="#DejaVuSans-14"/>
       <use xlink:href="#DejaVuSans-11" transform="translate(63.625 0)"/>
       <use xlink:href="#DejaVuSans-13" transform="translate(95.40625 0)"/>
      </g>
     </g>
    </g>
    <g id="text_17">
     <!-- P(EVM ≤ x) -->
     <g style="fill: #262626" transform="translate(12.518359 150.859189) rotate(-90) scale(0.07 -0.07)">
      <defs>
       <path id="DejaVuSans-33" d="M 1259 4147 
L 1259 2394 
L 2053 2394 
Q 2494 2394 2734 2622 
Q 2975 2850 2975 3272 
Q 2975 3691 2734 3919 
Q 2494 4147 2053 4147 
L 1259 4147 
z
M 628 4666 
L 2053 4666 
Q 2838 4666 3239 4311 
Q 3641 3956 3641 3272 
Q 3641 2581 3239 2228 
Q 2838 1875 2053 1875 
L 1259 1875 
L 1259 0 
L 628 0 
L 628 4666 
z
" transform="scale(0.015625)"/>
       <path id="DejaVuSans-cee" d="M 4684 3175 
L 1684 2309 
L 4684 1453 
L 4684 897 
L 678 2047 
L 678 2578 
L 4684 3725 
L 4684 3175 
z
M 678 531 
L 4684 531 
L 4684 0 
L 678 0 
L 678 531 
z
" transform="scale(0.015625)"/>
       <path id="DejaVuSans-5b" d="M 3513 3500 
L 2247 1797 
L 3578 0 
L 2900 0 
L 1881 1375 
L 863 0 
L 184 0 
L 1544 1831 
L 300 3500 
L 978 3500 
L 1906 2253 
L 2834 3500 
L 3513 3500 
z
" transform="scale(0.015625)"/>
      </defs>
      <use xlink:href="#DejaVuSans-33"/>
      <use xlink:href="#DejaVuSans-b" transform="translate(60.296875 0)"/>
      <use xlink:href="#DejaVuSans-28" transform="translate(99.3125 0)"/>
      <use xlink:href="#DejaVuSans-39" transform="translate(162.5 0)"/>
      <use xlink:href="#DejaVuSans-30" transform="translate(230.90625 0)"/>
      <use xlink:href="#DejaVuSans-3" transform="translate(317.1875 0)"/>
      <use xlink:href="#DejaVuSans-cee" transform="translate(348.96875 0)"/>
      <use xlink:href="#DejaVuSans-3" transform="translate(432.765625 0)"/>
      <use xlink:href="#DejaVuSans-5b" transform="translate(464.546875 0)"/>
      <use xlink:href="#DejaVuSans-c" transform="translate(523.734375 0)"/>
     </g>
    </g>
   </g>
   <g id="line2d_16">
    <path d="M 200.661549 243.807519 
L 200.661549 243.807519 
L 200.661549 188.589587 
L 202.744443 188.589587 
L 202.744443 133.371656 
L 212.034027 133.371656 
L 212.034027 78.153725 
L 218.361174 78.153725 
L 218.361174 22.935794 
" clip-path="url(#pbf3ac8069c)" style="fill: none; stroke: #333333; stroke-width: 1.2; stroke-linecap: round"/>
   </g>
   <g id="line2d_17">
    <defs>
     <path id="mf6462cd80b" d="M 0 1.5 
C 0.397805 1.5 0.77937 1.341951 1.06066 1.06066 
C 1.341951 0.77937 1.5 0.397805 1.5 0 
C 1.5 -0.397805 1.341951 -0.77937 1.06066 -1.06066 
C 0.77937 -1.341951 0.397805 -1.5 0 -1.5 
C -0.397805 -1.5 -0.77937 -1.341951 -1.06066 -1.06066 
C -1.341951 -0.77937 -1.5 -0.397805 -1.5 0 
C -1.5 0.397805 -1.341951 0.77937 -1.06066 1.06066 
C -0.77937 1.341951 -0.397805 1.5 0 1.5 
z
" style="stroke: #333333"/>
    </defs>
    <g clip-path="url(#pbf3ac8069c)">
     <use xlink:href="#mf6462cd80b" x="200.661549" y="188.589587" style="fill: #333333; stroke: #333333"/>
     <use xlink:href="#mf6462cd80b" x="202.744443" y="133.371656" style="fill: #333333; stroke: #333333"/>
     <use xlink:href="#mf6462cd80b" x="212.034027" y="78.153725" style="fill: #333333; stroke: #333333"/>
     <use xlink:href="#mf6462cd80b" x="218.361174" y="22.935794" style="fill: #333333; stroke: #333333"/>
    </g>
   </g>
   <g id="line2d_18">
    <path d="M 60.654937 243.807519 
L 60.654937 243.807519 
L 60.654937 188.589587 
L 76.851355 188.589587 
L 76.851355 133.371656 
L 77.249045 133.371656 
L 77.249045 78.153725 
L 78.993514 78.153725 
L 78.993514 22.935794 
" clip-path="url(#pbf3ac8069c)" style="fill: none; stroke: #009e73; stroke-width: 1.2; stroke-linecap: round"/>
   </g>
   <g id="line2d_19">
    <defs>
     <path id="md8595601ba" d="M 0 -1.5 
L -1.426585 -0.463525 
L -0.881678 1.213525 
L 0.881678 1.213525 
L 1.426585 -0.463525 
z
" style="stroke: #009e73; stroke-linejoin: miter"/>
    </defs>
    <g clip-path="url(#pbf3ac8069c)">
     <use xlink:href="#md8595601ba" x="60.654937" y="188.589587" style="fill: #009e73; stroke: #009e73; stroke-linejoin: miter"/>
     <use xlink:href="#md8595601ba" x="76.851355" y="133.371656" style="fill: #009e73; stroke: #009e73; stroke-linejoin: miter"/>
     <use xlink:href="#md8595601ba" x="77.249045" y="78.153725" style="fill: #009e73; stroke: #009e73; stroke-linejoin: miter"/>
     <use xlink:href="#md8595601ba" x="78.993514" y="22.935794" style="fill: #009e73; stroke: #009e73; stroke-linejoin: miter"/>
    </g>
   </g>
   <g id="line2d_20">
    <path d="M 46.870413 243.807519 
L 46.870413 243.807519 
L 46.870413 188.589587 
L 47.46729 188.589587 
L 47.46729 133.371656 
L 51.087291 133.371656 
L 51.087291 78.153725 
L 191.823841 78.153725 
L 191.823841 22.935794 
" clip-path="url(#pbf3ac8069c)" style="fill: none; stroke: #0072b2; stroke-width: 1.2; stroke-linecap: round"/>
   </g>
   <g id="line2d_21">
    <defs>
     <path id="mdda665aa75" d="M 0 -1.5 
L -1.5 1.5 
L 1.5 1.5 
z
" style="stroke: #0072b2; stroke-linejoin: miter"/>
    </defs>
    <g clip-path="url(#pbf3ac8069c)">
     <use xlink:href="#mdda665aa75" x="46.870413" y="188.589587" style="fill: #0072b2; stroke: #0072b2; stroke-linejoin: miter"/>
     <use xlink:href="#mdda665aa75" x="47.46729" y="133.371656" style="fill: #0072b2; stroke: #0072b2; stroke-linejoin: miter"/>
     <use xlink:href="#mdda665aa75" x="51.087291" y="78.153725" style="fill: #0072b2; stroke: #0072b2; stroke-linejoin: miter"/>
     <use xlink:href="#mdda665aa75" x="191.823841" y="22.935794" style="fill: #0072b2; stroke: #0072b2; stroke-linejoin: miter"/>
    </g>
   </g>
   <g id="line2d_22">
    <path d="M 84.200544 243.807519 
L 84.200544 243.807519 
L 84.200544 230.003036 
L 84.692483 230.003036 
L 84.692483 216.198553 
L 96.07658 216.198553 
L 96.07658 202.39407 
L 100.183703 202.39407 
L 100.183703 188.589587 
L 101.699747 188.589587 
L 101.699747 174.785105 
L 101.921939 174.785105 
L 101.921939 160.980622 
L 105.103564 160.980622 
L 105.103564 147.176139 
L 107.976144 147.176139 
L 107.976144 133.371656 
L 130.365133 133.371656 
L 130.365133 119.567173 
L 131.532433 119.567173 
L 131.532433 105.762691 
L 137.204909 105.762691 
L 137.204909 91.958208 
L 149.110528 91.958208 
L 149.110528 78.153725 
L 154.988356 78.153725 
L 154.988356 64.349242 
L 182.494968 64.349242 
L 182.494968 50.544759 
L 229.715879 50.544759 
L 229.715879 36.740277 
L 246.022814 36.740277 
L 246.022814 22.935794 
" clip-path="url(#pbf3ac8069c)" style="fill: none; stroke: #cc79a7; stroke-width: 1.2; stroke-linecap: round"/>
   </g>
   <g id="line2d_23">
    <defs>
     <path id="m2884454bd1" d="M -0.75 1.5 
L 0 0.75 
L 0.75 1.5 
L 1.5 0.75 
L 0.75 0 
L 1.5 -0.75 
L 0.75 -1.5 
L 0 -0.75 
L -0.75 -1.5 
L -1.5 -0.75 
L -0.75 0 
L -1.5 0.75 
z
" style="stroke: #cc79a7; stroke-linejoin: miter"/>
    </defs>
    <g clip-path="url(#pbf3ac8069c)">
     <use xlink:href="#m2884454bd1" x="84.200544" y="230.003036" style="fill: #cc79a7; stroke: #cc79a7; stroke-linejoin: miter"/>
     <use xlink:href="#m2884454bd1" x="84.692483" y="216.198553" style="fill: #cc79a7; stroke: #cc79a7; stroke-linejoin: miter"/>
     <use xlink:href="#m2884454bd1" x="96.07658" y="202.39407" style="fill: #cc79a7; stroke: #cc79a7; stroke-linejoin: miter"/>
     <use xlink:href="#m2884454bd1" x="100.183703" y="188.589587" style="fill: #cc79a7; stroke: #cc79a7; stroke-linejoin: miter"/>
     <use xlink:href="#m2884454bd1" x="101.699747" y="174.785105" style="fill: #cc79a7; stroke: #cc79a7; stroke-linejoin: miter"/>
     <use xlink:href="#m2884454bd1" x="101.921939" y="160.980622" style="fill: #cc79a7; stroke: #cc79a7; stroke-linejoin: miter"/>
     <use xlink:href="#m2884454bd1" x="105.103564" y="147.176139" style="fill: #cc79a7; stroke: #cc79a7; stroke-linejoin: miter"/>
     <use xlink:href="#m2884454bd1" x="107.976144" y="133.371656" style="fill: #cc79a7; stroke: #cc79a7; stroke-linejoin: miter"/>
     <use xlink:href="#m2884454bd1" x="130.365133" y="119.567173" style="fill: #cc79a7; stroke: #cc79a7; stroke-linejoin: miter"/>
     <use xlink:href="#m2884454bd1" x="131.532433" y="105.762691" style="fill: #cc79a7; stroke: #cc79a7; stroke-linejoin: miter"/>
     <use xlink:href="#m2884454bd1" x="137.204909" y="91.958208" style="fill: #cc79a7; stroke: #cc79a7; stroke-linejoin: miter"/>
     <use xlink:href="#m2884454bd1" x="149.110528" y="78.153725" style="fill: #cc79a7; stroke: #cc79a7; stroke-linejoin: miter"/>
     <use xlink:href="#m2884454bd1" x="154.988356" y="64.349242" style="fill: #cc79a7; stroke: #cc79a7; stroke-linejoin: miter"/>
     <use xlink:href="#m2884454bd1" x="182.494968" y="50.544759" style="fill: #cc79a7; stroke: #cc79a7; stroke-linejoin: miter"/>
     <use xlink:href="#m2884454bd1" x="229.715879" y="36.740277" style="fill: #cc79a7; stroke: #cc79a7; stroke-linejoin: miter"/>
     <use xlink:href="#m2884454bd1" x="246.022814" y="22.935794" style="fill: #cc79a7; stroke: #cc79a7; stroke-linejoin: miter"/>
    </g>
   </g>
   <g id="line2d_24">
    <path d="M 54.909237 243.807519 
L 54.909237 243.807519 
L 54.909237 230.003036 
L 57.13119 230.003036 
L 57.13119 216.198553 
L 89.965386 216.198553 
L 89.965386 202.39407 
L 90.380747 202.39407 
L 90.380747 188.589587 
L 93.779414 188.589587 
L 93.779414 174.785105 
L 98.020373 174.785105 
L 98.020373 160.980622 
L 98.490882 160.980622 
L 98.490882 147.176139 
L 99.117606 147.176139 
L 99.117606 133.371656 
L 100.006205 133.371656 
L 100.006205 119.567173 
L 104.864266 119.567173 
L 104.864266 105.762691 
L 105.409543 105.762691 
L 105.409543 91.958208 
L 109.023348 91.958208 
L 109.023348 78.153725 
L 183.543933 78.153725 
L 183.543933 64.349242 
L 195.073141 64.349242 
L 195.073141 50.544759 
L 201.132937 50.544759 
L 201.132937 36.740277 
L 257.634919 36.740277 
L 257.634919 22.935794 
" clip-path="url(#pbf3ac8069c)" style="fill: none; stroke: #e69f00; stroke-width: 1.2; stroke-linecap: round"/>
   </g>
   <g id="line2d_25">
    <defs>
     <path id="ma15f55695b" d="M -1.5 1.5 
L 1.5 1.5 
L 1.5 -1.5 
L -1.5 -1.5 
z
" style="stroke: #e69f00; stroke-linejoin: miter"/>
    </defs>
    <g clip-path="url(#pbf3ac8069c)">
     <use xlink:href="#ma15f55695b" x="54.909237" y="230.003036" style="fill: #e69f00; stroke: #e69f00; stroke-linejoin: miter"/>
     <use xlink:href="#ma15f55695b" x="57.13119" y="216.198553" style="fill: #e69f00; stroke: #e69f00; stroke-linejoin: miter"/>
     <use xlink:href="#ma15f55695b" x="89.965386" y="202.39407" style="fill: #e69f00; stroke: #e69f00; stroke-linejoin: miter"/>
     <use xlink:href="#ma15f55695b" x="90.380747" y="188.589587" style="fill: #e69f00; stroke: #e69f00; stroke-linejoin: miter"/>
     <use xlink:href="#ma15f55695b" x="93.779414" y="174.785105" style="fill: #e69f00; stroke: #e69f00; stroke-linejoin: miter"/>
     <use xlink:href="#ma15f55695b" x="98.020373" y="160.980622" style="fill: #e69f00; stroke: #e69f00; stroke-linejoin: miter"/>
     <use xlink:href="#ma15f55695b" x="98.490882" y="147.176139" style="fill: #e69f00; stroke: #e69f00; stroke-linejoin: miter"/>
     <use xlink:href="#ma15f55695b" x="99.117606" y="133.371656" style="fill: #e69f00; stroke: #e69f00; stroke-linejoin: miter"/>
     <use xlink:href="#ma15f55695b" x="100.006205" y="119.567173" style="fill: #e69f00; stroke: #e69f00; stroke-linejoin: miter"/>
     <use xlink:href="#ma15f55695b" x="104.864266" y="105.762691" style="fill: #e69f00; stroke: #e69f00; stroke-linejoin: miter"/>
     <use xlink:href="#ma15f55695b" x="105.409543" y="91.958208" style="fill: #e69f00; stroke: #e69f00; stroke-linejoin: miter"/>
     <use xlink:href="#ma15f55695b" x="109.023348" y="78.153725" style="fill: #e69f00; stroke: #e69f00; stroke-linejoin: miter"/>
     <use xlink:href="#ma15f55695b" x="183.543933" y="64.349242" style="fill: #e69f00; stroke: #e69f00; stroke-linejoin: miter"/>
     <use xlink:href="#ma15f55695b" x="195.073141" y="50.544759" style="fill: #e69f00; stroke: #e69f00; stroke-linejoin: miter"/>
     <use xlink:href="#ma15f55695b" x="201.132937" y="36.740277" style="fill: #e69f00; stroke: #e69f00; stroke-linejoin: miter"/>
     <use xlink:href="#ma15f55695b" x="257.634919" y="22.935794" style="fill: #e69f00; stroke: #e69f00; stroke-linejoin: miter"/>
    </g>
   </g>
   <g id="patch_3">
    <path d="M 36.332188 243.807519 
L 36.332188 18.518359 
" style="fill: none; stroke: #000000; stroke-width: 0.8; stroke-linejoin: miter; stroke-linecap: square"/>
   </g>
   <g id="patch_4">
    <path d="M 268.173144 243.807519 
L 268.173144 18.518359 
" style="fill: none; stroke: #000000; stroke-width: 0.8; stroke-linejoin: miter; stroke-linecap: square"/>
   </g>
   <g id="patch_5">
    <path d="M 36.332188 243.807519 
L 268.173144 243.807519 
" style="fill: none; stroke: #000000; stroke-width: 0.8; stroke-linejoin: miter; stroke-linecap: square"/>
   </g>
   <g id="patch_6">
    <path d="M 36.332188 18.518359 
L 268.173144 18.518359 
" style="fill: none; stroke: #000000; stroke-width: 0.8; stroke-linejoin: miter; stroke-linecap: square"/>
   </g>
   <g id="text_18">
    <!-- (a) -->
    <g style="fill: #262626" transform="translate(47.924235 35.101177) scale(0.07 -0.07)">
     <defs>
      <path id="DejaVuSans-44" d="M 2194 1759 
Q 1497 1759 1228 1600 
Q 959 1441 959 1056 
Q 959 750 1161 570 
Q 1363 391 1709 391 
Q 2188 391 2477 730 
Q 2766 1069 2766 1631 
L 2766 1759 
L 2194 1759 
z
M 3341 1997 
L 3341 0 
L 2766 0 
L 2766 531 
Q 2569 213 2275 61 
Q 1981 -91 1556 -91 
Q 1019 -91 701 211 
Q 384 513 384 1019 
Q 384 1609 779 1909 
Q 1175 2209 1959 2209 
L 2766 2209 
L 2766 2266 
Q 2766 2663 2505 2880 
Q 2244 3097 1772 3097 
Q 1472 3097 1187 3025 
Q 903 2953 641 2809 
L 641 3341 
Q 956 3463 1253 3523 
Q 1550 3584 1831 3584 
Q 2591 3584 2966 3190 
Q 3341 2797 3341 1997 
z
" transform="scale(0.015625)"/>
     </defs>
     <use xlink:href="#DejaVuSans-b"/>
     <use xlink:href="#DejaVuSans-44" transform="translate(39.015625 0)"/>
     <use xlink:href="#DejaVuSans-c" transform="translate(100.296875 0)"/>
    </g>
   </g>
   <g id="text_19">
    <!-- 50 mA -->
    <g style="fill: #262626" transform="translate(140.883134 12.518359) scale(0.07 -0.07)">
     <defs>
      <path id="DejaVuSans-50" d="M 3328 2828 
Q 3544 3216 3844 3400 
Q 4144 3584 4550 3584 
Q 5097 3584 5394 3201 
Q 5691 2819 5691 2113 
L 5691 0 
L 5113 0 
L 5113 2094 
Q 5113 2597 4934 2840 
Q 4756 3084 4391 3084 
Q 3944 3084 3684 2787 
Q 3425 2491 3425 1978 
L 3425 0 
L 2847 0 
L 2847 2094 
Q 2847 2600 2669 2842 
Q 2491 3084 2119 3084 
Q 1678 3084 1418 2786 
Q 1159 2488 1159 1978 
L 1159 0 
L 581 0 
L 581 3500 
L 1159 3500 
L 1159 2956 
Q 1356 3278 1631 3431 
Q 1906 3584 2284 3584 
Q 2666 3584 2933 3390 
Q 3200 3197 3328 2828 
z
" transform="scale(0.015625)"/>
      <path id="DejaVuSans-24" d="M 2188 4044 
L 1331 1722 
L 3047 1722 
L 2188 4044 
z
M 1831 4666 
L 2547 4666 
L 4325 0 
L 3669 0 
L 3244 1197 
L 1141 1197 
L 716 0 
L 50 0 
L 1831 4666 
z
" transform="scale(0.015625)"/>
     </defs>
     <use xlink:href="#DejaVuSans-18"/>
     <use xlink:href="#DejaVuSans-13" transform="translate(63.625 0)"/>
     <use xlink:href="#DejaVuSans-3" transform="translate(127.25 0)"/>
     <use xlink:href="#DejaVuSans-50" transform="translate(159.03125 0)"/>
     <use xlink:href="#DejaVuSans-24" transform="translate(256.4375 0)"/>
    </g>
   </g>
   <g id="legend_1">
    <g id="patch_7">
     <path d="M 202.310644 241.307519 
L 264.673144 241.307519 
Q 265.673144 241.307519 265.673144 240.307519 
L 265.673144 207.305565 
Q 265.673144 206.305565 264.673144 206.305565 
L 202.310644 206.305565 
Q 201.310644 206.305565 201.310644 207.305565 
L 201.310644 240.307519 
Q 201.310644 241.307519 202.310644 241.307519 
z
" style="fill: #ffffff; opacity: 0.8; stroke: #cccccc; stroke-linejoin: miter"/>
    </g>
    <g id="line2d_26">
     <path d="M 203.310644 210.354784 
L 207.310644 210.354784 
L 211.310644 210.354784 
" style="fill: none; stroke: #333333; stroke-width: 1.2; stroke-linecap: round"/>
     <g>
      <use xlink:href="#mf6462cd80b" x="207.310644" y="210.354784" style="fill: #333333; stroke: #333333"/>
     </g>
    </g>
    <g id="text_20">
     <!-- gmp (n=4) -->
     <g style="fill: #262626" transform="translate(215.310644 212.104784) scale(0.05 -0.05)">
      <defs>
       <path id="DejaVuSans-4a" d="M 2906 1791 
Q 2906 2416 2648 2759 
Q 2391 3103 1925 3103 
Q 1463 3103 1205 2759 
Q 947 2416 947 1791 
Q 947 1169 1205 825 
Q 1463 481 1925 481 
Q 2391 481 2648 825 
Q 2906 1169 2906 1791 
z
M 3481 434 
Q 3481 -459 3084 -895 
Q 2688 -1331 1869 -1331 
Q 1566 -1331 1297 -1286 
Q 1028 -1241 775 -1147 
L 775 -588 
Q 1028 -725 1275 -790 
Q 1522 -856 1778 -856 
Q 2344 -856 2625 -561 
Q 2906 -266 2906 331 
L 2906 616 
Q 2728 306 2450 153 
Q 2172 0 1784 0 
Q 1141 0 747 490 
Q 353 981 353 1791 
Q 353 2603 747 3093 
Q 1141 3584 1784 3584 
Q 2172 3584 2450 3431 
Q 2728 3278 2906 2969 
L 2906 3500 
L 3481 3500 
L 3481 434 
z
" transform="scale(0.015625)"/>
       <path id="DejaVuSans-53" d="M 1159 525 
L 1159 -1331 
L 581 -1331 
L 581 3500 
L 1159 3500 
L 1159 2969 
Q 1341 3281 1617 3432 
Q 1894 3584 2278 3584 
Q 2916 3584 3314 3078 
Q 3713 2572 3713 1747 
Q 3713 922 3314 415 
Q 2916 -91 2278 -91 
Q 1894 -91 1617 61 
Q 1341 213 1159 525 
z
M 3116 1747 
Q 3116 2381 2855 2742 
Q 2594 3103 2138 3103 
Q 1681 3103 1420 2742 
Q 1159 2381 1159 1747 
Q 1159 1113 1420 752 
Q 1681 391 2138 391 
Q 2594 391 2855 752 
Q 3116 1113 3116 1747 
z
" transform="scale(0.015625)"/>
       <path id="DejaVuSans-51" d="M 3513 2113 
L 3513 0 
L 2938 0 
L 2938 2094 
Q 2938 2591 2744 2837 
Q 2550 3084 2163 3084 
Q 1697 3084 1428 2787 
Q 1159 2491 1159 1978 
L 1159 0 
L 581 0 
L 581 3500 
L 1159 3500 
L 1159 2956 
Q 1366 3272 1645 3428 
Q 1925 3584 2291 3584 
Q 2894 3584 3203 3211 
Q 3513 2838 3513 2113 
z
" transform="scale(0.015625)"/>
       <path id="DejaVuSans-20" d="M 678 2906 
L 4684 2906 
L 4684 2381 
L 678 2381 
L 678 2906 
z
M 678 1631 
L 4684 1631 
L 4684 1100 
L 678 1100 
L 678 1631 
z
" transform="scale(0.015625)"/>
      </defs>
      <use xlink:href="#DejaVuSans-4a"/>
      <use xlink:href="#DejaVuSans-50" transform="translate(63.484375 0)"/>
      <use xlink:href="#DejaVuSans-53" transform="translate(160.890625 0)"/>
      <use xlink:href="#DejaVuSans-3" transform="translate(224.375 0)"/>
      <use xlink:href="#DejaVuSans-b" transform="translate(256.15625 0)"/>
      <use xlink:href="#DejaVuSans-51" transform="translate(295.171875 0)"/>
      <use xlink:href="#DejaVuSans-20" transform="translate(358.546875 0)"/>
      <use xlink:href="#DejaVuSans-17" transform="translate(442.34375 0)"/>
      <use xlink:href="#DejaVuSans-c" transform="translate(505.96875 0)"/>
     </g>
    </g>
    <g id="line2d_27">
     <path d="M 203.310644 216.855175 
L 207.310644 216.855175 
L 211.310644 216.855175 
" style="fill: none; stroke: #009e73; stroke-width: 1.2; stroke-linecap: round"/>
     <g>
      <use xlink:href="#md8595601ba" x="207.310644" y="216.855175" style="fill: #009e73; stroke: #009e73; stroke-linejoin: miter"/>
     </g>
    </g>
    <g id="text_21">
     <!-- nonprob LRU (n=4) -->
     <g style="fill: #262626" transform="translate(215.310644 218.605175) scale(0.05 -0.05)">
      <defs>
       <path id="DejaVuSans-52" d="M 1959 3097 
Q 1497 3097 1228 2736 
Q 959 2375 959 1747 
Q 959 1119 1226 758 
Q 1494 397 1959 397 
Q 2419 397 2687 759 
Q 2956 1122 2956 1747 
Q 2956 2369 2687 2733 
Q 2419 3097 1959 3097 
z
M 1959 3584 
Q 2709 3584 3137 3096 
Q 3566 2609 3566 1747 
Q 3566 888 3137 398 
Q 2709 -91 1959 -91 
Q 1206 -91 779 398 
Q 353 888 353 1747 
Q 353 2609 779 3096 
Q 1206 3584 1959 3584 
z
" transform="scale(0.015625)"/>
       <path id="DejaVuSans-55" d="M 2631 2963 
Q 2534 3019 2420 3045 
Q 2306 3072 2169 3072 
Q 1681 3072 1420 2755 
Q 1159 2438 1159 1844 
L 1159 0 
L 581 0 
L 581 3500 
L 1159 3500 
L 1159 2956 
Q 1341 3275 1631 3429 
Q 1922 3584 2338 3584 
Q 2397 3584 2469 3576 
Q 2541 3569 2628 3553 
L 2631 2963 
z
" transform="scale(0.015625)"/>
       <path id="DejaVuSans-45" d="M 3116 1747 
Q 3116 2381 2855 2742 
Q 2594 3103 2138 3103 
Q 1681 3103 1420 2742 
Q 1159 2381 1159 1747 
Q 1159 1113 1420 752 
Q 1681 391 2138 391 
Q 2594 391 2855 752 
Q 3116 1113 3116 1747 
z
M 1159 2969 
Q 1341 3281 1617 3432 
Q 1894 3584 2278 3584 
Q 2916 3584 3314 3078 
Q 3713 2572 3713 1747 
Q 3713 922 3314 415 
Q 2916 -91 2278 -91 
Q 1894 -91 1617 61 
Q 1341 213 1159 525 
L 1159 0 
L 581 0 
L 581 4863 
L 1159 4863 
L 1159 2969 
z
" transform="scale(0.015625)"/>
       <path id="DejaVuSans-2f" d="M 628 4666 
L 1259 4666 
L 1259 531 
L 3531 531 
L 3531 0 
L 628 0 
L 628 4666 
z
" transform="scale(0.015625)"/>
       <path id="DejaVuSans-35" d="M 2841 2188 
Q 3044 2119 3236 1894 
Q 3428 1669 3622 1275 
L 4263 0 
L 3584 0 
L 2988 1197 
Q 2756 1666 2539 1819 
Q 2322 1972 1947 1972 
L 1259 1972 
L 1259 0 
L 628 0 
L 628 4666 
L 2053 4666 
Q 2853 4666 3247 4331 
Q 3641 3997 3641 3322 
Q 3641 2881 3436 2590 
Q 3231 2300 2841 2188 
z
M 1259 4147 
L 1259 2491 
L 2053 2491 
Q 2509 2491 2742 2702 
Q 2975 2913 2975 3322 
Q 2975 3731 2742 3939 
Q 2509 4147 2053 4147 
L 1259 4147 
z
" transform="scale(0.015625)"/>
       <path id="DejaVuSans-38" d="M 556 4666 
L 1191 4666 
L 1191 1831 
Q 1191 1081 1462 751 
Q 1734 422 2344 422 
Q 2950 422 3222 751 
Q 3494 1081 3494 1831 
L 3494 4666 
L 4128 4666 
L 4128 1753 
Q 4128 841 3676 375 
Q 3225 -91 2344 -91 
Q 1459 -91 1007 375 
Q 556 841 556 1753 
L 556 4666 
z
" transform="scale(0.015625)"/>
      </defs>
      <use xlink:href="#DejaVuSans-51"/>
      <use xlink:href="#DejaVuSans-52" transform="translate(63.375 0)"/>
      <use xlink:href="#DejaVuSans-51" transform="translate(124.5625 0)"/>
      <use xlink:href="#DejaVuSans-53" transform="translate(187.9375 0)"/>
      <use xlink:href="#DejaVuSans-55" transform="translate(251.421875 0)"/>
      <use xlink:href="#DejaVuSans-52" transform="translate(290.328125 0)"/>
      <use xlink:href="#DejaVuSans-45" transform="translate(351.515625 0)"/>
      <use xlink:href="#DejaVuSans-3" transform="translate(415 0)"/>
      <use xlink:href="#DejaVuSans-2f" transform="translate(446.78125 0)"/>
      <use xlink:href="#DejaVuSans-35" transform="translate(502.5 0)"/>
      <use xlink:href="#DejaVuSans-38" transform="translate(571.984375 0)"/>
      <use xlink:href="#DejaVuSans-3" transform="translate(645.171875 0)"/>
      <use xlink:href="#DejaVuSans-b" transform="translate(676.953125 0)"/>
      <use xlink:href="#DejaVuSans-51" transform="translate(715.96875 0)"/>
      <use xlink:href="#DejaVuSans-20" transform="translate(779.34375 0)"/>
      <use xlink:href="#DejaVuSans-17" transform="translate(863.140625 0)"/>
      <use xlink:href="#DejaVuSans-c" transform="translate(926.765625 0)"/>
     </g>
    </g>
    <g id="line2d_28">
     <path d="M 203.310644 223.355565 
L 207.310644 223.355565 
L 211.310644 223.355565 
" style="fill: none; stroke: #0072b2; stroke-width: 1.2; stroke-linecap: round"/>
     <g>
      <use xlink:href="#mdda665aa75" x="207.310644" y="223.355565" style="fill: #0072b2; stroke: #0072b2; stroke-linejoin: miter"/>
     </g>
    </g>
    <g id="text_22">
     <!-- nonprob TCN (n=4) -->
     <g style="fill: #262626" transform="translate(215.310644 225.105565) scale(0.05 -0.05)">
      <defs>
       <path id="DejaVuSans-37" d="M -19 4666 
L 3928 4666 
L 3928 4134 
L 2272 4134 
L 2272 0 
L 1638 0 
L 1638 4134 
L -19 4134 
L -19 4666 
z
" transform="scale(0.015625)"/>
       <path id="DejaVuSans-26" d="M 4122 4306 
L 4122 3641 
Q 3803 3938 3442 4084 
Q 3081 4231 2675 4231 
Q 1875 4231 1450 3742 
Q 1025 3253 1025 2328 
Q 1025 1406 1450 917 
Q 1875 428 2675 428 
Q 3081 428 3442 575 
Q 3803 722 4122 1019 
L 4122 359 
Q 3791 134 3420 21 
Q 3050 -91 2638 -91 
Q 1578 -91 968 557 
Q 359 1206 359 2328 
Q 359 3453 968 4101 
Q 1578 4750 2638 4750 
Q 3056 4750 3426 4639 
Q 3797 4528 4122 4306 
z
" transform="scale(0.015625)"/>
       <path id="DejaVuSans-31" d="M 628 4666 
L 1478 4666 
L 3547 763 
L 3547 4666 
L 4159 4666 
L 4159 0 
L 3309 0 
L 1241 3903 
L 1241 0 
L 628 0 
L 628 4666 
z
" transform="scale(0.015625)"/>
      </defs>
      <use xlink:href="#DejaVuSans-51"/>
      <use xlink:href="#DejaVuSans-52" transform="translate(63.375 0)"/>
      <use xlink:href="#DejaVuSans-51" transform="translate(124.5625 0)"/>
      <use xlink:href="#DejaVuSans-53" transform="translate(187.9375 0)"/>
      <use xlink:href="#DejaVuSans-55" transform="translate(251.421875 0)"/>
      <use xlink:href="#DejaVuSans-52" transform="translate(290.328125 0)"/>
      <use xlink:href="#DejaVuSans-45" transform="translate(351.515625 0)"/>
      <use xlink:href="#DejaVuSans-3" transform="translate(415 0)"/>
      <use xlink:href="#DejaVuSans-37" transform="translate(446.78125 0)"/>
      <use xlink:href="#DejaVuSans-26" transform="translate(502 0)"/>
      <use xlink:href="#DejaVuSans-31" transform="translate(571.828125 0)"/>
      <use xlink:href="#DejaVuSans-3" transform="translate(646.640625 0)"/>
      <use xlink:href="#DejaVuSans-b" transform="translate(678.421875 0)"/>
      <use xlink:href="#DejaVuSans-51" transform="translate(717.4375 0)"/>
      <use xlink:href="#DejaVuSans-20" transform="translate(780.8125 0)"/>
      <use xlink:href="#DejaVuSans-17" transform="translate(864.609375 0)"/>
      <use xlink:href="#DejaVuSans-c" transform="translate(928.234375 0)"/>
     </g>
    </g>
    <g id="line2d_29">
     <path d="M 203.310644 229.855956 
L 207.310644 229.855956 
L 211.310644 229.855956 
" style="fill: none; stroke: #cc79a7; stroke-width: 1.2; stroke-linecap: round"/>
     <g>
      <use xlink:href="#m2884454bd1" x="207.310644" y="229.855956" style="fill: #cc79a7; stroke: #cc79a7; stroke-linejoin: miter"/>
     </g>
    </g>
    <g id="text_23">
     <!-- prob LRU (n=16) -->
     <g style="fill: #262626" transform="translate(215.310644 231.605956) scale(0.05 -0.05)">
      <use xlink:href="#DejaVuSans-53"/>
      <use xlink:href="#DejaVuSans-55" transform="translate(63.484375 0)"/>
      <use xlink:href="#DejaVuSans-52" transform="translate(102.390625 0)"/>
      <use xlink:href="#DejaVuSans-45" transform="translate(163.578125 0)"/>
      <use xlink:href="#DejaVuSans-3" transform="translate(227.0625 0)"/>
      <use xlink:href="#DejaVuSans-2f" transform="translate(258.84375 0)"/>
      <use xlink:href="#DejaVuSans-35" transform="translate(314.5625 0)"/>
      <use xlink:href="#DejaVuSans-38" transform="translate(384.046875 0)"/>
      <use xlink:href="#DejaVuSans-3" transform="translate(457.234375 0)"/>
      <use xlink:href="#DejaVuSans-b" transform="translate(489.015625 0)"/>
      <use xlink:href="#DejaVuSans-51" transform="translate(528.03125 0)"/>
      <use xlink:href="#DejaVuSans-20" transform="translate(591.40625 0)"/>
      <use xlink:href="#DejaVuSans-14" transform="translate(675.203125 0)"/>
      <use xlink:href="#DejaVuSans-19" transform="translate(738.828125 0)"/>
      <use xlink:href="#DejaVuSans-c" transform="translate(802.453125 0)"/>
     </g>
    </g>
    <g id="line2d_30">
     <path d="M 203.310644 236.356347 
L 207.310644 236.356347 
L 211.310644 236.356347 
" style="fill: none; stroke: #e69f00; stroke-width: 1.2; stroke-linecap: round"/>
     <g>
      <use xlink:href="#ma15f55695b" x="207.310644" y="236.356347" style="fill: #e69f00; stroke: #e69f00; stroke-linejoin: miter"/>
     </g>
    </g>
    <g id="text_24">
     <!-- prob TCN (n=16) -->
     <g style="fill: #262626" transform="translate(215.310644 238.106347) scale(0.05 -0.05)">
      <use xlink:href="#DejaVuSans-53"/>
      <use xlink:href="#DejaVuSans-55" transform="translate(63.484375 0)"/>
      <use xlink:href="#DejaVuSans-52" transform="translate(102.390625 0)"/>
      <use xlink:href="#DejaVuSans-45" transform="translate(163.578125 0)"/>
      <use xlink:href="#DejaVuSans-3" transform="translate(227.0625 0)"/>
      <use xlink:href="#DejaVuSans-37" transform="translate(258.84375 0)"/>
      <use xlink:href="#DejaVuSans-26" transform="translate(314.0625 0)"/>
      <use xlink:href="#DejaVuSans-31" transform="translate(383.890625 0)"/>
      <use xlink:href="#DejaVuSans-3" transform="translate(458.703125 0)"/>
      <use xlink:href="#DejaVuSans-b" transform="translate(490.484375 0)"/>
      <use xlink:href="#DejaVuSans-51" transform="translate(529.5 0)"/>
      <use xlink:href="#DejaVuSans-20" transform="translate(592.875 0)"/>
      <use xlink:href="#DejaVuSans-14" transform="translate(676.671875 0)"/>
      <use xlink:href="#DejaVuSans-19" transform="translate(740.296875 0)"/>
      <use xlink:href="#DejaVuSans-c" transform="translate(803.921875 0)"/>
     </g>
    </g>
   </g>
  </g>
 </g>
 <defs>
  <clipPath id="pbf3ac8069c">
   <rect x="36.332188" y="18.518359" width="231.840956" height="225.289159"/>
  </clipPath>
 </defs>
</svg>
